<svg xmlns="http://www.w3.org/2000/svg"  viewBox="0 0 50 50" width="50px" height="50px"><path fill="#df4bb1" d="M43.648,14.397c-1.046-0.852-2.359-1.362-3.734-1.659c-1.139-0.247-2.305-0.368-3.476-0.447	c0.02-1.229-0.137-2.454-0.554-3.544c-0.918-2.398-3.496-2.25-5.648-2.327c-2.426-0.087-4.865-0.219-7.292-0.166	c-2.191,0.048-4.409,0.339-6.391,1.325c-0.51,0.254-1.098,0.553-1.405,1.056c-0.329,0.54-0.296,1.194-0.238,1.802	c0.042,0.438,0.12,0.865,0.214,1.286c-0.089,0.004-0.179,0.004-0.268,0.009c-1.216,0.092-2.431,0.196-3.645,0.311	c-0.633,0.076-1.636,0.236-2.429,0.364c-1.182,0.191-2.257,0.919-2.716,2.025c-0.149,0.36-0.233,0.742-0.227,1.137	c0.018,1.319,1.086,2.301,2.107,2.981c0.187,0.125,0.384,0.238,0.58,0.351c0.488,3.498,1.201,6.961,1.896,10.424	c0.536,2.668,1.071,5.335,1.607,8.003c-0.034,0.067-0.054,0.147-0.04,0.247c0.275,2.058,0.419,4.188,0.85,6.219	c0.414,1.951,2.179,2.329,3.892,2.684c3.991,0.825,8.133,0.84,12.129,0.045c3.059-0.608,6.66-1.776,8.102-4.817	c1.702-2.529,2.35-5.714,2.882-8.702c0.738-4.15,1.474-8.301,2.211-12.451c0.53-0.634,1.129-1.22,1.547-1.935	C44.381,17.288,44.42,15.715,43.648,14.397z M26.958,11.754c-3.206-0.071-6.502-0.172-9.795-0.097	c-0.083-0.305-0.17-0.61-0.216-0.924c-0.03-0.205-0.048-0.412-0.06-0.62c-0.006-0.106,0-0.219-0.014-0.324	c-0.003-0.021,0.003-0.065,0.008-0.107c0.015-0.011,0.03-0.022,0.043-0.025c0.093-0.019,0.292-0.17,0.362-0.208	c0.204-0.111,0.413-0.216,0.627-0.308c1.578-0.681,3.331-0.85,5.032-0.888c1.972-0.043,3.951,0.053,5.922,0.118	c1.027,0.034,2.054,0.065,3.08,0.112c0.601,0.028,1.437,0.032,1.857,0.543c0.295,0.36,0.364,0.945,0.443,1.384	c0.096,0.529,0.142,1.064,0.155,1.601c0.001,0.056-0.003,0.112-0.002,0.168c-0.754-0.035-1.506-0.07-2.248-0.126	C30.42,11.921,28.693,11.793,26.958,11.754z"/><path fill="#399bdf" d="M2.427,8.95c0.879,0.886,1.835,1.689,2.845,2.421c0.198,0.144,0.544,0.163,0.771,0.101 c0.232-0.064,0.483-0.243,0.598-0.46c0.123-0.232,0.184-0.513,0.101-0.771C6.657,9.98,6.504,9.805,6.282,9.644 C6.099,9.511,5.918,9.376,5.74,9.238C5.807,9.29,5.875,9.342,5.942,9.394c-0.74-0.573-1.441-1.194-2.1-1.859 c-0.369-0.372-1.05-0.397-1.414,0C2.06,7.936,2.034,8.553,2.427,8.95L2.427,8.95z"/><path fill="#399bdf" d="M6.142,6.669c0.504,0.739,0.932,1.525,1.281,2.348c-0.034-0.08-0.067-0.159-0.101-0.239 C7.34,8.82,7.357,8.862,7.374,8.904c0.103,0.251,0.215,0.455,0.46,0.598c0.214,0.125,0.53,0.179,0.771,0.101 c0.242-0.078,0.475-0.228,0.598-0.46c0.117-0.221,0.201-0.528,0.101-0.771C8.912,7.42,8.45,6.511,7.869,5.659 C7.721,5.442,7.531,5.271,7.271,5.2C7.032,5.134,6.713,5.164,6.501,5.301c-0.214,0.138-0.401,0.343-0.46,0.598 C5.984,6.15,5.991,6.448,6.142,6.669L6.142,6.669z"/><path fill="#399bdf" d="M10.961,5.667c-0.002,0.254-0.02,0.508-0.052,0.76c0.012-0.089,0.024-0.177,0.036-0.266 c-0.07,0.519-0.203,1.025-0.398,1.511c-0.09,0.225-0.016,0.571,0.101,0.771c0.121,0.207,0.359,0.405,0.598,0.46 c0.256,0.058,0.543,0.046,0.771-0.101c0.067-0.052,0.135-0.104,0.202-0.156c0.124-0.125,0.21-0.272,0.257-0.441 c0.322-0.801,0.478-1.675,0.487-2.537c0.002-0.255-0.113-0.528-0.293-0.707c-0.173-0.173-0.458-0.304-0.707-0.293 C11.415,4.692,10.966,5.107,10.961,5.667L10.961,5.667z"/><path fill="#99c93c" d="M46.52,34.045c-0.408-1.223-1.059-2.342-1.729-3.437c-0.671-1.096-2.401-0.093-1.727,1.009	c0.842,1.376,1.816,2.894,1.825,4.564c0,0.025-0.021,0.162-0.045,0.312c-0.215-0.556-0.486-1.091-0.828-1.582	c-0.531-0.763-1.61-1.985-2.506-0.891c-0.718,0.876,0.057,1.885,0.61,2.602c0.309,0.401,0.676,0.873,1.088,1.281	c0.067,0.267,0.124,0.535,0.153,0.795c0.035,0.309,0.041,0.623,0.03,0.933c-0.002,0.07-0.024,0.179-0.048,0.295	c-0.279-0.351-0.581-0.687-0.895-1.005c-0.807-0.819-2.115,0.222-1.571,1.212c0.339,0.617,0.836,1.308,1.446,1.769	c0.111,0.197,0.203,0.403,0.271,0.62c0.095,0.304,0.139,0.63,0.098,0.948c-0.016,0.125-0.052,0.262-0.098,0.383	c-0.135-0.156-0.281-0.297-0.456-0.426c-0.436-0.319-1.115-0.073-1.368,0.359c-0.296,0.507-0.078,1.048,0.359,1.368	c-0.218-0.159,0.084,0.205,0.134,0.281c0.092,0.14,0.191,0.284,0.311,0.401c0.336,0.329,0.826,0.484,1.286,0.379	c0.925-0.211,1.559-1.261,1.743-2.128c0.148-0.701,0.094-1.359-0.081-1.98c0.386-0.3,0.649-0.789,0.745-1.34	c0.114-0.649,0.137-1.312,0.089-1.971c0.633-0.153,1.139-0.69,1.37-1.367C47.087,36.375,46.863,35.072,46.52,34.045z"/><path fill="#fff" d="M15.171,22.972c0.658,6.404,1.47,12.791,2.43,19.157c0.121,0.802,1.131,1.244,1.845,1.048 c0.858-0.236,1.169-1.041,1.048-1.845c-0.92-6.101-1.692-12.222-2.322-18.359c-0.083-0.806-0.63-1.5-1.5-1.5 C15.924,21.472,15.087,22.162,15.171,22.972L15.171,22.972z"/><path fill="#fff" d="M25.594,22.004c-0.691,5.626-1.052,11.286-1.081,16.954c-0.01,1.931,2.99,1.933,3,0 c0.029-5.668,0.39-11.328,1.081-16.954c0.099-0.805-0.76-1.5-1.5-1.5C26.202,20.504,25.694,21.196,25.594,22.004L25.594,22.004z"/><path fill="#fff" d="M33.584,24.68c-0.28,4.007-0.79,7.918-1.552,11.859c-0.154,0.795,0.224,1.619,1.048,1.845 c0.735,0.202,1.691-0.248,1.845-1.048c0.809-4.181,1.362-8.409,1.659-12.657c0.057-0.809-0.73-1.5-1.5-1.5 C34.225,23.18,33.64,23.869,33.584,24.68L33.584,24.68z"/><path fill="#231f20" d="M10.4,19.309c8.986-1.06,18.103-0.85,27.027,0.652c0.629,0.106,0.9-0.858,0.266-0.964 c-9.016-1.517-18.212-1.759-27.293-0.688C9.769,18.383,9.761,19.384,10.4,19.309L10.4,19.309z"/></svg>