<svg xmlns="http://www.w3.org/2000/svg"  viewBox="0 0 50 50" width="50px" height="50px"><path fill="#429ad4" d="M23.166,44.992c-0.034-0.198-0.062-0.397-0.094-0.595c-0.01-0.073-0.009-0.061,0.004,0.036 c-0.008-0.061-0.016-0.123-0.023-0.184c-0.011-0.092-0.022-0.184-0.032-0.276c-0.042-0.384-0.073-0.769-0.093-1.154 c-0.041-0.787-0.036-1.575,0.01-2.362c0.031-0.523-0.482-1.023-1-1c-0.568,0.025-0.967,0.44-1,1 c-0.101,1.697,0.014,3.391,0.299,5.067c0.088,0.517,0.752,0.853,1.23,0.698C23.025,46.041,23.26,45.546,23.166,44.992 L23.166,44.992z"/><path fill="#429ad4" d="M24.843,37.889c0.655,0.788,1.31,1.576,1.966,2.363c0.155,0.186,0.474,0.293,0.707,0.293 c0.245,0,0.538-0.109,0.707-0.293c0.175-0.191,0.305-0.441,0.293-0.707c-0.012-0.089-0.024-0.177-0.036-0.266 c-0.048-0.169-0.133-0.316-0.257-0.441c-0.655-0.788-1.31-1.576-1.966-2.363c-0.155-0.186-0.474-0.293-0.707-0.293 c-0.245,0-0.538,0.109-0.707,0.293c-0.175,0.191-0.305,0.441-0.293,0.707c0.012,0.089,0.024,0.177,0.036,0.266 C24.633,37.617,24.719,37.764,24.843,37.889L24.843,37.889z"/><path fill="#429ad4" d="M28.278,33.678c0.966,0.503,1.886,1.09,2.748,1.755c-0.067-0.052-0.135-0.104-0.202-0.156 c0.087,0.068,0.174,0.136,0.261,0.206c0.215,0.172,0.421,0.293,0.707,0.293c0.245,0,0.538-0.109,0.707-0.293 c0.175-0.191,0.305-0.441,0.293-0.707c-0.011-0.248-0.09-0.545-0.293-0.707c-1.005-0.805-2.068-1.523-3.211-2.117 c-0.464-0.241-1.107-0.135-1.368,0.359C27.676,32.77,27.782,33.421,28.278,33.678L28.278,33.678z"/><path fill="#99c93c" d="M15.032,21.177c-0.362-0.277-0.698-0.613-0.986-0.965c-0.128-0.156-0.261-0.323-0.348-0.507 c-0.044-0.069-0.072-0.144-0.085-0.226c0.001-0.111-0.021-0.074-0.066,0.111c-0.236,0.098-0.471,0.195-0.707,0.293 c0.343-0.037,1.079,0.263,1.497,0.372c0.568,0.148,1.136,0.297,1.704,0.445c0.478,0.125,0.994-0.118,1.18-0.579 c0.199-0.495,0.002-0.942-0.409-1.249c-0.265-0.197-0.487-0.458-0.655-0.741c-0.071-0.119-0.143-0.246-0.189-0.377 c-0.075-0.214,0.001-0.305-0.213-0.164c-0.153,0.033-0.164,0.061-0.035,0.084c0.118,0.04,0.234,0.084,0.35,0.13 c0.157,0.061,0.311,0.126,0.465,0.194c0.407,0.18,0.805,0.379,1.198,0.589c0.812,0.432,1.993-0.504,1.368-1.368 c-0.179-0.248-0.965-1.172-0.575-1.48c-0.038,0.03-0.189,0.007,0.016,0.047c0.154,0.03,0.34,0.196,0.467,0.277 c0.409,0.261,0.804,0.543,1.19,0.837c0.347,0.264,0.926,0.13,1.212-0.156c0.341-0.341,0.333-0.797,0.156-1.212 c-0.138-0.323-0.277-0.665-0.337-1.014c-0.022-0.127-0.014-0.252-0.022-0.38c-0.01-0.164,0.055-0.117-0.014-0.138 c-0.063,0.055-0.138,0.086-0.227,0.091c0.05,0.015,0.101,0.03,0.151,0.045c0.126,0.063,0.276,0.1,0.405,0.162 c0.286,0.138,0.567,0.307,0.814,0.508c0.418,0.341,1.005,0.409,1.414,0c0.352-0.352,0.421-1.071,0-1.414 c-0.945-0.769-2.661-1.895-3.818-0.929c-1.249,1.043-0.621,2.838-0.094,4.078c0.456-0.456,0.912-0.912,1.368-1.368 c-1.11-0.847-2.816-2.163-4.097-0.848c-1.148,1.179-0.572,2.748,0.262,3.903c0.456-0.456,0.912-0.912,1.368-1.368 c-1.227-0.654-3.546-2.095-4.551-0.395c-0.89,1.505,0.432,3.257,1.61,4.134c0.257-0.609,0.514-1.219,0.771-1.828 c-0.821-0.214-1.641-0.428-2.462-0.643c-0.894-0.233-1.93-0.51-2.362,0.594c-0.656,1.678,1.09,3.276,2.274,4.182 c0.429,0.328,1.119,0.067,1.368-0.359C15.692,22.03,15.462,21.506,15.032,21.177L15.032,21.177z"/><path fill="#fd2923" d="M7.893,36.02c-0.106,0.103-0.209,0.209-0.302,0.327c-0.217,0.274-0.406,0.561-0.55,0.88 c-0.057,0.126-1.897,4.983-2.352,7.138c-0.148,0.7-0.331,1.573,0.497,1.911c0.736,0.301,1.778-0.065,2.504-0.245 c1.912-0.476,3.756-1.28,5.405-2.357c1.744-1.139,3.242-2.597,4.734-4.038c6.449-6.233,12.898-12.473,19.029-19.021 c1.519-1.622,3.033-3.254,4.49-4.933c0.687-0.792,1.352-1.604,1.968-2.453c0.578-0.798,1.182-1.661,1.357-2.651 c0.172-0.972-0.211-1.829-0.639-2.678c-0.372-0.739-0.782-1.463-1.315-2.1c-1.115-1.332-2.751-1.835-4.387-1.172 c-1.791,0.726-3.248,2.304-4.665,3.568c-1.6,1.427-3.178,2.88-4.733,4.356c-3.109,2.954-6.125,6.006-9.043,9.149 c-2.917,3.143-5.736,6.379-8.449,9.699"/><path fill="#fff" d="M34.605,10.886c1.073,1.321,2.281,2.528,3.603,3.6c0.319,0.259,0.634,0.439,1.061,0.439 c0.368,0,0.807-0.163,1.061-0.439c0.262-0.286,0.457-0.661,0.439-1.061c-0.017-0.373-0.136-0.815-0.439-1.061 c-1.322-1.072-2.53-2.279-3.603-3.6c-0.228-0.28-0.716-0.439-1.061-0.439c-0.368,0-0.807,0.163-1.061,0.439 c-0.262,0.286-0.457,0.661-0.439,1.061c0.018,0.133,0.036,0.266,0.054,0.399C34.29,10.478,34.419,10.699,34.605,10.886 L34.605,10.886z"/><path fill="#fff" d="M13.824,39.327c-0.086-0.108-0.223-0.192-0.372-0.254c-1.157-0.638-2.314-1.276-3.471-1.913 c-0.591-0.326-1.348-0.143-1.698,0.445c-0.703,1.179-1.255,2.456-1.639,3.774c-0.047,0.16-0.046,0.316-0.025,0.468 c0.025,0.391,0.242,0.75,0.602,1.005c0.234,0.166,1.568,1.453,2.112,1.439c0.366-0.009,0.676-0.173,1.002-0.321 c0.8-0.363,1.562-0.81,2.269-1.332c0.4-0.295,0.857-0.603,1.187-0.982c0.279-0.321,0.472-0.709,0.484-1.141 C14.289,40.036,14.114,39.692,13.824,39.327z"/><path fill="#231f20" d="M5.837,42.364c1.009,0.943,2.056,1.846,3.137,2.705c0.204,0.162,0.51,0.214,0.707,0 c0.166-0.181,0.219-0.533,0-0.707C8.6,43.502,7.553,42.6,6.544,41.657c-0.191-0.179-0.52-0.204-0.707,0 C5.659,41.851,5.633,42.173,5.837,42.364L5.837,42.364z"/></svg>